<svg width="24" height="24" viewBox="0 0 24 24" fill="none" xmlns="http://www.w3.org/2000/svg">
<g clip-path="url(#clip0_102_51)">
<path fill-rule="evenodd" clip-rule="evenodd" d="M12 0C5.374 0 0 5.372 0 12C0 18.627 5.374 24 12 24C18.627 24 24 18.627 24 12C24 5.372 18.627 0 12 0ZM15.248 18.348L14.877 17.053L15.773 17.886L16.62 18.67L18.125 20V7.442C18.125 6.644 17.481 6 16.69 6H7.31C6.519 6 5.875 6.644 5.875 7.442V16.906C5.875 17.704 6.519 18.348 7.31 18.348H15.248ZM13.988 15.142L13.526 14.575C14.443 14.316 14.793 13.742 14.793 13.742C14.506 13.931 14.233 14.064 13.988 14.155C13.638 14.302 13.302 14.4 12.973 14.456C12.301 14.582 11.685 14.547 11.16 14.449C10.761 14.372 10.418 14.26 10.131 14.148C9.97 14.085 9.795 14.008 9.62 13.91L9.592 13.894L9.585 13.891L9.557 13.875L9.529 13.854L9.333 13.735C9.333 13.735 9.669 14.295 10.558 14.561L10.089 15.142C8.542 15.093 7.954 14.078 7.954 14.078C7.954 11.824 8.962 9.997 8.962 9.997C9.97 9.241 10.929 9.262 10.929 9.262L10.999 9.346C9.739 9.71 9.158 10.263 9.158 10.263L9.571 10.06C10.32 9.731 10.915 9.64 11.16 9.619L11.279 9.605C11.706 9.549 12.189 9.535 12.693 9.591C13.358 9.668 14.072 9.864 14.8 10.263C14.8 10.263 14.247 9.738 13.057 9.374L13.155 9.262C13.155 9.262 14.114 9.241 15.122 9.997C15.122 9.997 16.13 11.824 16.13 14.078C16.13 14.078 15.557 15.055 13.988 15.142ZM13.288 11.873C12.889 11.873 12.574 12.223 12.574 12.65C12.574 13.077 12.896 13.427 13.288 13.427C13.687 13.427 14.002 13.077 14.002 12.65C14.002 12.223 13.687 11.873 13.288 11.873ZM10.733 11.873C10.334 11.873 10.019 12.223 10.019 12.65C10.019 13.077 10.341 13.427 10.733 13.427C11.132 13.427 11.447 13.077 11.447 12.65C11.454 12.223 11.132 11.873 10.733 11.873Z" fill="white"/>
</g>
<defs>
<clipPath id="clip0_102_51">
<rect width="24" height="24" fill="white"/>
</clipPath>
</defs>
</svg>
